<svg width="24" height="24" viewBox="0 0 24 24" fill="none" xmlns="http://www.w3.org/2000/svg">
<path d="M11.4 1.075L2.7 4.575C2.3 4.775 2 5.175 2 5.575V13.875C2 17.675 6.8 21.375 11.3 23.675C11.6 23.775 11.9 23.775 12.2 23.675C16.7 21.375 21.5 17.675 21.5 13.875V5.575C21.5 5.175 21.3 4.775 20.9 4.675L12.2 1.075C11.9 0.975 11.6 0.975 11.4 1.075Z" fill="#007FF7"/>
<path d="M11.4 15.6C11.1 15.6 10.9 15.5 10.7 15.3L7.3 11.9C6.9 11.5 6.9 10.9 7.3 10.5C7.7 10.1 8.3 10.1 8.7 10.5L11.4 13.2L16.3 8.3C16.7 7.9 17.3 7.9 17.7 8.3C18.1 8.7 18.1 9.3 17.7 9.7L12.1 15.3C11.9 15.5 11.7 15.6 11.4 15.6Z" fill="white"/>
</svg>
