<svg width="24" height="24" viewBox="0 0 24 24" fill="none" xmlns="http://www.w3.org/2000/svg">
<g id="SVG">
<path id="Vector" d="M15.98 9.005L14.36 14.875C14.31 15.055 14.06 15.055 14.01 14.875L12.43 9.135C12.38 8.955 12.13 8.955 12.08 9.135L10.5 14.875C10.45 15.055 10.2 15.055 10.15 14.875L8.53 9.005M15.14 12.005H17.5M9.36 12.005H7" stroke="#007FF2" stroke-width="1.58" stroke-linecap="round" stroke-linejoin="round"/>
<path id="Vector_2" d="M11.73 4.46C12.6855 4.46 13.46 3.68545 13.46 2.73C13.46 1.77455 12.6855 1 11.73 1C10.7745 1 10 1.77455 10 2.73C10 3.68545 10.7745 4.46 11.73 4.46Z" fill="#4D9CFF"/>
<path id="Vector_3" d="M4.73 9.46C5.68545 9.46 6.46 8.68545 6.46 7.73C6.46 6.77455 5.68545 6 4.73 6C3.77455 6 3 6.77455 3 7.73C3 8.68545 3.77455 9.46 4.73 9.46Z" fill="#74B6FF"/>
<path id="Vector_4" d="M4.73 18.46C5.68545 18.46 6.46 17.6855 6.46 16.73C6.46 15.7745 5.68545 15 4.73 15C3.77455 15 3 15.7745 3 16.73C3 17.6855 3.77455 18.46 4.73 18.46Z" fill="#007FF2"/>
<path id="Vector_5" d="M11.73 22.46C12.6855 22.46 13.46 21.6855 13.46 20.73C13.46 19.7745 12.6855 19 11.73 19C10.7745 19 10 19.7745 10 20.73C10 21.6855 10.7745 22.46 11.73 22.46Z" fill="#4D9CFF"/>
<path id="Vector_6" d="M19.73 18.46C20.6855 18.46 21.46 17.6855 21.46 16.73C21.46 15.7745 20.6855 15 19.73 15C18.7745 15 18 15.7745 18 16.73C18 17.6855 18.7745 18.46 19.73 18.46Z" fill="#74B6FF"/>
<path id="Vector_7" d="M19.73 9.46C20.6855 9.46 21.46 8.68545 21.46 7.73C21.46 6.77455 20.6855 6 19.73 6C18.7745 6 18 6.77455 18 7.73C18 8.68545 18.7745 9.46 19.73 9.46Z" fill="#007FF2"/>
</g>
</svg>
