<svg width="24" height="24" viewBox="0 0 24 24" fill="none" xmlns="http://www.w3.org/2000/svg">
<g id="SVG">
<g id="Group">
<path id="Vector" fill-rule="evenodd" clip-rule="evenodd" d="M11.5 3C6.3 3 2 7.3 2 12.5C2 17.7 6.3 22 11.5 22C16.7 22 21 17.7 21 12.5C21 7.3 16.7 3 11.5 3ZM11.5 24C5.2 24 0 18.8 0 12.5C0 6.2 5.2 1 11.5 1C17.8 1 23 6.2 23 12.5C23 18.8 17.8 24 11.5 24Z" fill="#AFB7C0"/>
<path id="Vector_2" fill-rule="evenodd" clip-rule="evenodd" d="M11.5 3C6.3 3 2 7.3 2 12.5C2 17.7 6.3 22 11.5 22C16.7 22 21 17.7 21 12.5C21 7.3 16.7 3 11.5 3Z" fill="white"/>
<path id="Vector_3" fill-rule="evenodd" clip-rule="evenodd" d="M6.96875 16.1687C6.66875 16.1687 6.36875 15.9688 6.16875 15.7688C5.86875 15.2688 5.96875 14.6688 6.46875 14.3688L11.1687 11.1687C11.6687 10.8687 12.2687 10.9688 12.5687 11.4688C12.8687 11.9688 12.7688 12.5688 12.2688 12.8688L7.56875 15.9688C7.36875 16.1687 7.16875 16.1687 6.96875 16.1687Z" fill="#EF4452"/>
<path id="Vector_4" fill-rule="evenodd" clip-rule="evenodd" d="M11 13.2C10.4 13.2 10 12.8 10 12.2V7C10 6.4 10.4 6 11 6C11.6 6 12 6.4 12 7V12.2C12 12.7 11.6 13.2 11 13.2Z" fill="#4E5968"/>
</g>
</g>
</svg>
